<?xml version="1.0" encoding="utf-8"?>
<!-- Generator: Adobe Illustrator 22.1.0, SVG Export Plug-In . SVG Version: 6.00 Build 0)  -->
<svg version="1.1" id="Layer_1" xmlns="http://www.w3.org/2000/svg" xmlns:xlink="http://www.w3.org/1999/xlink" x="0px" y="0px"
	 viewBox="0 0 24 16" style="enable-background:new 0 0 24 16;" xml:space="preserve">
<g>
	<g>
		<path d="M22,12.8c0.5,0,1,0.4,1,1c0,0.5-0.4,1-1,1s-1-0.4-1-1C21,13.2,21.5,12.8,22,12.8L22,12.8z M22,11.8c-1.1,0-2,0.9-2,2
			s0.9,2,2,2s2-0.9,2-2S23.1,11.8,22,11.8L22,11.8z"/>
	</g>
	<g>
		<path d="M2.3,12.8c0.5,0,1,0.4,1,1c0,0.5-0.4,1-1,1s-1-0.4-1-1C1.3,13.2,1.8,12.8,2.3,12.8L2.3,12.8z M2.3,11.8c-1.1,0-2,0.9-2,2
			s0.9,2,2,2s2-0.9,2-2S3.4,11.8,2.3,11.8L2.3,11.8z"/>
	</g>
	<g>
		<path d="M7.2,12.8c0.5,0,1,0.4,1,1c0,0.5-0.4,1-1,1s-1-0.4-1-1C6.3,13.2,6.7,12.8,7.2,12.8L7.2,12.8z M7.2,11.8c-1.1,0-2,0.9-2,2
			s0.9,2,2,2s2-0.9,2-2S8.3,11.8,7.2,11.8L7.2,11.8z"/>
	</g>
	<g>
		<path d="M12.2,12.8c0.5,0,1,0.4,1,1c0,0.5-0.4,1-1,1c-0.5,0-1-0.4-1-1C11.2,13.2,11.6,12.8,12.2,12.8L12.2,12.8z M12.2,11.8
			c-1.1,0-2,0.9-2,2s0.9,2,2,2s2-0.9,2-2S13.3,11.8,12.2,11.8L12.2,11.8z"/>
	</g>
	<g>
		<path d="M23.5,10.3V4.4h-3V3l1.4-2.8l-15,3.2L5,6.4H1.9l-1,4.2L0,11.5l0.7,0.7l0.8-0.8H13l3,2h2.3l3-2H24v-1H23.5z M4.8,10.3H2
			l0.7-3h2.1V10.3z M5.8,10.3V9.8l0.8,0.6H5.8z M10.8,10.3l2.1-0.8c0.1,0.3,0.3,0.6,0.5,0.8H10.8z M12.7,8.3c0,0,0,0.1,0,0.2
			l-4.4,1.8L5.8,8.6V7l1.8-2.7l12.6-2.7l-0.6,1.2v1.6h-2v1.7c-0.5-0.5-1.2-0.8-2-0.8C14,5.4,12.7,6.7,12.7,8.3z M13.7,8.3
			c0-1.1,0.9-2,2-2s2,0.9,2,2c0,1.1-0.9,2-2,2S13.7,9.4,13.7,8.3z M17.9,12.3h-1.7l-1.5-1h4.6L17.9,12.3z M22.5,10.3h-3.9V5.4h3.9
			V10.3z"/>
	</g>
	<g>
		<rect x="19.6" y="6.4" width="2" height="2"/>
	</g>
</g>
</svg>
