<?xml version="1.0" encoding="utf-8"?>
<!-- Generator: Adobe Illustrator 22.1.0, SVG Export Plug-In . SVG Version: 6.00 Build 0)  -->
<svg version="1.1" id="Layer_1" xmlns="http://www.w3.org/2000/svg" xmlns:xlink="http://www.w3.org/1999/xlink" x="0px" y="0px"
	 viewBox="0 0 24 16" style="enable-background:new 0 0 24 16;" xml:space="preserve">
<g>
	<path d="M14,13c0.6,0,1,0.4,1,1s-0.4,1-1,1H2c-0.6,0-1-0.4-1-1s0.4-1,1-1H14L14,13z M14,12H2c-1.1,0-2,0.9-2,2s0.9,2,2,2h12
		c1.1,0,2-0.9,2-2S15.1,12,14,12L14,12z"/>
	<path d="M23,0h-3c-0.2,0-0.4,0-0.5,0.1L15,2.8V0H8v5H4C2.3,5,1,6.3,1,8c0,1.6,1.3,3,3,3h9c1,0,1.8-0.8,2-1.7l0,0l0.4-0.3l5-3.7
		L21,12h-1.6l-1.1-1.1H17V16h7v-3V1C24,0.4,23.5,0,23,0z M14,9c0,0.5-0.5,1-1,1H4c-1.1,0-2-0.9-2-2c0-1.1,0.9-2,2-2h10V9z M14,5H9V1
		h5V5z M23,15h-5v-3l1,1h4V15z M23,12h-1l-0.8-8.7L15,8V4l5-3h3V12z"/>
</g>
</svg>
