<?xml version="1.0" encoding="UTF-8"?>
<svg width="214px" height="55px" viewBox="0 0 214 55" version="1.1" xmlns="http://www.w3.org/2000/svg" xmlns:xlink="http://www.w3.org/1999/xlink">
    <!-- Generator: Sketch 51 (57462) - http://www.bohemiancoding.com/sketch -->
    <title>Logo</title>
    <desc>Created with Sketch.</desc>
    <defs>
        <polygon id="path-1" points="0 0 41.422 0 41.422 54.9997 0 54.9997"></polygon>
        <polygon id="path-3" points="0.5359 0.230630287 31.067 0.230630287 31.067 11.4182 0.5359 11.4182"></polygon>
    </defs>
    <g id="Page-1" stroke="none" stroke-width="1" fill="none" fill-rule="evenodd">
        <g id="01---Desktop---Landing" transform="translate(-556.000000, -4719.000000)">
            <g id="Footer" transform="translate(0.000000, 4634.000000)">
                <g id="Logo" transform="translate(556.000000, 85.000000)">
                    <g id="Group-3">
                        <mask id="mask-2" fill="white">
                            <use xlink:href="#path-1"></use>
                        </mask>
                        <g id="Clip-2"></g>
                        <path d="M0,53.6777 L0.237,53.5217 C0.865,53.8327 1.572,54.0657 2.359,54.2227 C3.145,54.3767 3.903,54.4547 4.637,54.4547 C6.418,54.4547 8.174,53.9747 9.904,53.0177 C11.634,52.0577 13.295,50.8237 14.895,49.3227 C16.492,47.8157 18.012,46.0937 19.454,44.1467 C20.895,42.2027 22.23,40.2707 23.462,38.3527 C24.692,36.4327 25.793,34.5787 26.764,32.7897 C27.732,31.0007 28.557,29.4847 29.239,28.2397 C29.239,27.8237 29.082,27.7727 28.767,28.0837 C28.296,28.4987 27.522,29.1217 26.449,29.9497 C25.375,30.7807 24.091,31.5977 22.597,32.4017 C21.104,33.2047 19.427,33.9177 17.567,34.5397 C15.707,35.1627 13.755,35.4747 11.712,35.4747 C7.887,35.4747 4.992,34.6827 3.027,33.1017 C1.062,31.5207 0.079,29.3547 0.079,26.6057 C0.079,25.5157 0.394,23.9087 1.022,21.7817 C1.651,19.6567 2.699,17.3747 4.167,14.9367 C5.633,12.4997 7.558,10.1267 9.944,7.8187 C12.327,5.5117 15.274,3.6317 18.786,2.1777 C20.88,1.3497 22.963,0.7777 25.034,0.4677 C27.104,0.1557 29.004,-0.0003 30.732,-0.0003 C31.623,-0.0003 32.592,0.0517 33.641,0.1557 C34.689,0.2607 35.709,0.4277 36.706,0.6607 C37.7,0.8947 38.619,1.2197 39.457,1.6337 C40.294,2.0497 40.951,2.5407 41.422,3.1127 C41.212,3.9947 40.884,5.0697 40.439,6.3397 C39.994,7.6127 39.562,8.7127 39.143,9.6467 L38.592,9.8027 L38.514,9.5687 C38.619,9.2567 38.697,8.9467 38.75,8.6357 C38.802,8.3237 38.829,7.9867 38.829,7.6237 C38.829,6.6907 38.554,5.8087 38.003,4.9787 C37.454,4.1507 36.706,3.4227 35.764,2.8007 C34.819,2.1777 33.719,1.6987 32.461,1.3617 C31.204,1.0247 29.869,0.8557 28.454,0.8557 C25.781,0.8557 23.292,1.4147 20.986,2.5287 C18.68,3.6437 16.584,5.1347 14.699,7.0017 C13.545,8.0907 12.313,9.5037 11.004,11.2407 C9.694,12.9797 8.475,14.8467 7.35,16.8427 C6.222,18.8397 5.292,20.8487 4.559,22.8707 C3.825,24.8937 3.459,26.7607 3.459,28.4727 C3.459,30.5477 4.167,32.1287 5.582,33.2177 C6.997,34.3067 9.04,34.8517 11.712,34.8517 C14.017,34.8517 16.322,34.3727 18.629,33.4127 C20.934,32.4527 23.042,31.2607 24.956,29.8337 C26.867,28.4077 28.532,26.8257 29.947,25.0877 C31.361,23.3517 32.357,21.7047 32.934,20.1487 C33.142,19.6307 33.234,19.2417 33.209,18.9807 C33.182,18.7227 32.88,18.5927 32.304,18.5927 C31.413,18.6457 30.365,18.7227 29.161,18.8267 C27.955,18.9307 26.646,19.0337 25.231,19.1367 L24.995,19.0597 L25.231,18.2037 C26.279,18.2037 27.444,18.1777 28.729,18.1267 C30.012,18.0747 31.295,18.0087 32.579,17.9317 C33.862,17.8547 35.094,17.7247 36.274,17.5427 C37.454,17.3617 38.514,17.1667 39.457,16.9587 C39.665,17.1147 39.665,17.3477 39.457,17.6587 C38.619,17.8667 38.042,18.1137 37.729,18.3987 C37.414,18.6837 37.072,19.1897 36.706,19.9157 C35.709,21.8347 34.57,24.0257 33.287,26.4887 C32.002,28.9517 30.667,31.4287 29.279,33.9177 C27.89,36.4067 26.489,38.7537 25.074,40.9577 C23.659,43.1637 22.322,44.9637 21.064,46.3647 C20.54,46.9877 19.794,47.7897 18.825,48.7757 C17.855,49.7607 16.689,50.7077 15.327,51.6167 C13.964,52.5237 12.393,53.3137 10.612,53.9897 C8.83,54.6627 6.839,54.9997 4.637,54.9997 C3.903,54.9997 3.17,54.9477 2.437,54.8457 C1.703,54.7397 0.917,54.5337 0.079,54.2227 L0,53.6777 Z" id="Fill-1" fill="#000000" mask="url(#mask-2)"></path>
                    </g>
                    <path d="M92,2.8779 C91.79,3.3969 91.539,4.0719 91.253,4.9009 C90.964,5.7309 90.741,6.4309 90.585,7.0019 C90.375,7.1059 90.191,7.0279 90.035,6.7679 C90.191,6.4579 90.271,6.0669 90.271,5.6019 C90.271,4.6669 89.812,3.7859 88.896,2.9569 C87.978,2.1269 86.524,1.7119 84.534,1.7119 C82.437,1.7119 80.732,2.3219 79.425,3.5399 C78.114,4.7579 77.46,6.3789 77.46,8.4019 C77.46,9.9569 77.825,11.4109 78.56,12.7579 C79.292,14.1079 80.105,15.3529 80.996,16.4919 C81.676,17.3749 82.239,18.1139 82.687,18.7089 C83.13,19.3069 83.485,19.8509 83.746,20.3439 C84.01,20.8359 84.191,21.3029 84.296,21.7439 C84.401,22.1849 84.455,22.7159 84.455,23.3379 C84.455,24.4269 84.204,25.4909 83.708,26.5269 C83.209,27.5659 82.554,28.5239 81.743,29.4049 C80.929,30.2879 80.039,31.0779 79.071,31.7779 C78.1,32.4789 77.145,33.0369 76.201,33.4509 C73.844,34.4879 71.222,35.0069 68.341,35.0069 C67.136,35.0069 65.944,34.9029 64.764,34.6949 C63.587,34.4879 62.497,34.1509 61.504,33.6859 C61.241,33.5289 61.006,33.3869 60.796,33.2569 C60.586,33.1279 60.456,32.9849 60.404,32.8289 C60.612,31.9479 60.862,30.9499 61.149,29.8339 C61.438,28.7199 61.686,27.7989 61.896,27.0719 C61.896,26.9689 61.976,26.9169 62.131,26.9169 C62.29,26.9169 62.369,27.0469 62.369,27.3059 C62.211,27.7729 62.131,28.2389 62.131,28.7049 C62.131,30.1589 62.735,31.4409 63.94,32.5569 C65.146,33.6729 67.005,34.2299 69.521,34.2299 C70.465,34.2299 71.419,34.1399 72.389,33.9569 C73.358,33.7759 74.236,33.5039 75.021,33.1409 C76.646,32.4139 78.022,31.3899 79.148,30.0669 C80.274,28.7449 80.84,27.1769 80.84,25.3609 C80.84,24.4799 80.63,23.5849 80.21,22.6769 C79.791,21.7709 78.979,20.5639 77.774,19.0599 C76.726,17.7109 75.927,16.5189 75.377,15.4819 C74.827,14.4439 74.551,13.2519 74.551,11.9019 C74.551,10.5549 74.853,9.2069 75.454,7.8579 C76.058,6.5089 76.802,5.3169 77.695,4.2779 C78.01,3.9169 78.442,3.4879 78.992,2.9959 C79.542,2.5029 80.197,2.0499 80.957,1.6329 C81.715,1.2189 82.607,0.8559 83.628,0.5449 C84.651,0.2329 85.79,0.0789 87.049,0.0789 C87.886,0.0789 88.699,0.1949 89.485,0.4279 C90.271,0.6609 90.979,1.1159 91.606,1.7889 C91.869,2.1519 92,2.5159 92,2.8779" id="Fill-4" fill="#000000"></path>
                    <path d="M54.5039,13.1362 C54.5039,12.9782 54.4819,12.8422 54.4359,12.7282 C54.3899,12.6152 54.2979,12.5582 54.1599,12.5582 C54.0009,12.5582 53.8519,12.6032 53.7139,12.6942 C53.5769,12.7852 53.4449,12.8982 53.3179,13.0342 C53.1929,13.1702 53.0839,13.3122 52.9929,13.4592 C52.9009,13.6072 52.8319,13.7262 52.7859,13.8162 C53.3359,13.8162 53.8389,13.8732 54.2979,13.9862 C54.3439,13.8502 54.3899,13.7092 54.4359,13.5612 C54.4819,13.4142 54.5039,13.2722 54.5039,13.1362 M54.2299,14.1902 C54.0009,14.1452 53.7419,14.1112 53.4559,14.0892 C53.1699,14.0662 52.9009,14.0542 52.6489,14.0542 C52.3509,14.5532 52.0939,15.0802 51.8759,15.6362 C51.6569,16.1912 51.4919,16.7302 51.3779,17.2512 C51.9269,16.8662 52.4829,16.3842 53.0449,15.8052 C53.6049,15.2272 54.0009,14.6892 54.2299,14.1902 M58.5929,19.2582 C58.5929,18.0112 58.2149,16.9222 57.4589,15.9922 C56.7029,15.0632 55.6839,14.4742 54.4009,14.2242 C54.1499,14.7462 53.7309,15.3692 53.1469,16.0952 C52.5639,16.8212 51.8939,17.5342 51.1369,18.2372 C51.0459,18.6222 50.9999,19.0872 50.9999,19.6312 C50.9999,21.1282 51.3089,22.4992 51.9269,23.7462 C52.5459,24.9932 53.3359,25.9682 54.2979,26.6702 C55.7409,25.6732 56.8179,24.5112 57.5279,23.1852 C58.2369,21.8592 58.5929,20.5492 58.5929,19.2582 M53.1289,27.3172 C52.6939,27.0222 52.3229,26.6422 52.0129,26.1782 C51.7049,25.7132 51.4459,25.2032 51.2399,24.6472 C51.0349,24.0922 50.8849,23.5032 50.7939,22.8792 C50.7009,22.2562 50.6559,21.6262 50.6559,20.9912 C50.6559,20.5382 50.6679,20.1132 50.6899,19.7162 C50.7129,19.3202 50.7709,18.8952 50.8619,18.4412 C50.3359,18.9172 49.7689,19.4162 49.1609,19.9372 C48.5539,20.4592 48.0329,20.9462 47.5989,21.3992 C47.3239,21.6722 47.0359,21.9902 46.7399,22.3522 C46.4409,22.7142 46.1609,23.0892 45.8979,23.4742 C45.6339,23.8602 45.4169,24.2672 45.2449,24.6982 C45.0729,25.1292 44.9869,25.5482 44.9869,25.9562 C44.9869,26.4552 45.0899,26.8632 45.2959,27.1802 C45.5029,27.4982 45.7769,27.7472 46.1209,27.9282 C46.4649,28.1102 46.8479,28.2352 47.2719,28.3032 C47.6949,28.3702 48.1249,28.4052 48.5609,28.4052 C49.3389,28.4052 50.1289,28.3142 50.9309,28.1322 C51.7329,27.9512 52.4649,27.6792 53.1289,27.3172 M62.4409,22.7252 C62.4409,23.4742 62.2559,24.1832 61.8909,24.8512 C61.5239,25.5202 61.0379,26.1042 60.4299,26.6022 C59.8239,27.1012 59.1299,27.4982 58.3519,27.7922 C57.5729,28.0882 56.7719,28.2352 55.9479,28.2352 C54.9849,28.2352 54.1259,27.9972 53.3709,27.5202 C51.9049,28.2682 50.3009,28.6422 48.5609,28.6422 C47.9639,28.6422 47.3919,28.5812 46.8429,28.4552 C46.2929,28.3312 45.7999,28.1272 45.3649,27.8442 C44.9289,27.5602 44.5859,27.1922 44.3339,26.7382 C44.0829,26.2852 43.9559,25.7302 43.9559,25.0722 C43.9559,24.2792 44.1859,23.5202 44.6439,22.7942 C45.1019,22.0692 45.6169,21.4452 46.1899,20.9232 C46.8999,20.2892 47.7069,19.6882 48.6119,19.1212 C49.5169,18.5542 50.3359,18.0112 51.0679,17.4892 C51.2059,16.9452 51.3949,16.3662 51.6349,15.7552 C51.8759,15.1422 52.1559,14.5762 52.4769,14.0542 C50.5519,14.0542 48.7259,14.3722 46.9969,15.0072 C45.2669,15.6412 43.7619,16.5082 42.4789,17.6082 C41.1959,18.7082 40.1769,19.9942 39.4209,21.4682 C38.6649,22.9412 38.2869,24.5062 38.2869,26.1602 C38.2869,27.3172 38.5109,28.3142 38.9569,29.1532 C39.4039,29.9912 40.0229,30.6882 40.8119,31.2442 C41.6029,31.7992 42.5299,32.2082 43.5959,32.4692 C44.6609,32.7282 45.8229,32.8592 47.0829,32.8592 C48.6179,32.8592 50.0769,32.6432 51.4639,32.2132 C52.8489,31.7822 54.1259,31.0922 55.2949,30.1382 C55.4089,30.0482 55.4949,30.0082 55.5519,30.0192 C55.6089,30.0312 55.5919,30.1052 55.4999,30.2412 C55.2949,30.5582 54.9389,30.8812 54.4359,31.2102 C53.9309,31.5392 53.3009,31.8442 52.5459,32.1292 C51.7899,32.4112 50.9359,32.6432 49.9859,32.8252 C49.0359,33.0072 48.0099,33.0972 46.9109,33.0972 C45.6739,33.0972 44.4719,32.9552 43.3039,32.6732 C42.1349,32.3882 41.0929,31.9462 40.1769,31.3452 C39.2609,30.7452 38.5219,29.9692 37.9619,29.0162 C37.3999,28.0652 37.1189,26.9312 37.1189,25.6162 C37.1189,23.9392 37.5599,22.3862 38.4419,20.9582 C39.3239,19.5292 40.4869,18.2822 41.9299,17.2172 C43.3719,16.1512 45.0219,15.3182 46.8769,14.7172 C48.7319,14.1172 50.6329,13.8162 52.5799,13.8162 C52.6489,13.6802 52.7529,13.5222 52.8889,13.3402 C53.0259,13.1592 53.1699,12.9782 53.3179,12.7962 C53.4669,12.6152 53.6279,12.4622 53.7999,12.3372 C53.9709,12.2132 54.1369,12.1502 54.2979,12.1502 C54.5039,12.1502 54.6519,12.2072 54.7439,12.3202 C54.8359,12.4332 54.8819,12.5472 54.8819,12.6602 C54.8819,12.8642 54.8409,13.0912 54.7619,13.3402 C54.6819,13.5902 54.5849,13.8162 54.4699,14.0202 C55.9129,14.2702 57.0689,14.7852 57.9399,15.5672 C58.8099,16.3492 59.2459,17.4662 59.2459,18.9172 C59.2459,19.6652 59.1139,20.4192 58.8499,21.1782 C58.5869,21.9382 58.2369,22.6702 57.8019,23.3722 C57.3669,24.0752 56.8619,24.7202 56.2909,25.3102 C55.7179,25.9002 55.1219,26.3982 54.5039,26.8062 C54.8249,27.0332 55.1909,27.2312 55.6029,27.4012 C56.0159,27.5722 56.4399,27.6572 56.8749,27.6572 C57.4239,27.6572 57.9799,27.5772 58.5409,27.4182 C59.1019,27.2602 59.6059,27.0112 60.0529,26.6702 C60.4999,26.3302 60.8599,25.8882 61.1349,25.3442 C61.4099,24.8002 61.5469,24.1432 61.5469,23.3722 C61.5469,22.9412 61.4839,22.5552 61.3579,22.2162 C61.2319,21.8752 61.0659,21.5862 60.8599,21.3482 C60.6539,21.1112 60.4249,20.9232 60.1729,20.7872 C59.9209,20.6522 59.6799,20.5732 59.4519,20.5492 C59.4059,20.5492 59.3769,20.5322 59.3649,20.4982 C59.3549,20.4652 59.3829,20.4362 59.4519,20.4132 C59.6349,20.4132 59.8409,20.3862 60.0699,20.3282 C60.2979,20.2722 60.4829,20.2432 60.6189,20.2432 C61.1699,20.2432 61.6099,20.4762 61.9419,20.9412 C62.2749,21.4062 62.4409,22.0002 62.4409,22.7252" id="Fill-6" fill="#000000"></path>
                    <path d="M113.3116,25.8096 C113.3916,25.6296 113.4326,25.4136 113.4326,25.1676 C113.4326,24.9456 113.4326,24.3576 113.0226,24.3576 C112.8386,24.3576 112.7066,24.5056 112.6206,24.6206 C110.9926,26.8526 109.2516,28.5746 107.4476,29.7376 C105.6566,30.8926 103.6436,31.4776 101.4626,31.4776 C100.9486,31.4776 100.4386,31.4316 99.9476,31.3416 C99.4736,31.2546 99.0526,31.0976 98.6946,30.8746 C98.3456,30.6596 98.0586,30.3526 97.8396,29.9646 C97.6236,29.5786 97.5126,29.0676 97.5126,28.4476 C97.5126,27.2556 97.7556,26.0146 98.2366,24.7566 C98.7226,23.4826 99.3396,22.2596 100.0726,21.1226 C100.8056,19.9826 101.5986,18.9366 102.4276,18.0156 C103.2546,17.0976 104.0016,16.3956 104.6506,15.9296 C105.2196,15.5156 105.8376,15.1536 106.4876,14.8546 C107.1186,14.5646 107.8096,14.4176 108.5426,14.4176 C109.4686,14.4176 110.2276,14.5196 110.7986,14.7226 C111.3626,14.9236 111.8176,15.1876 112.1496,15.5076 C112.4756,15.8226 112.7036,16.1776 112.8246,16.5616 C112.9496,16.9646 113.0126,17.3566 113.0126,17.7276 C113.0126,17.9256 112.9936,18.1626 112.9556,18.4326 C112.9096,18.7536 112.8616,18.9156 112.8306,18.9956 L112.6326,19.4946 L113.6186,19.1656 L113.6596,19.0496 C113.8406,18.5276 114.0816,17.9206 114.3726,17.2466 C114.6596,16.5806 114.8966,16.0846 115.0786,15.7736 L115.1126,15.7146 L115.1126,15.6476 C115.1126,15.4316 115.0336,15.1336 114.6706,14.9526 C113.7946,14.4336 112.8326,14.0666 111.8116,13.8626 C109.4496,13.3896 107.1416,13.4506 105.0546,14.2336 C103.8646,14.6796 102.7656,15.2906 101.7906,16.0486 C101.0076,16.6426 100.2226,17.3806 99.4566,18.2416 C98.6866,19.1056 97.9856,20.0456 97.3716,21.0356 C96.7496,22.0326 96.2386,23.0846 95.8476,24.1626 C95.4536,25.2486 95.2526,26.3276 95.2526,27.3676 C95.2526,28.3126 95.4236,29.1126 95.7616,29.7456 C96.1006,30.3806 96.5666,30.8956 97.1446,31.2766 C97.7156,31.6526 98.3766,31.9196 99.1116,32.0726 C99.8336,32.2216 100.5986,32.2976 101.3826,32.2976 C103.8126,32.2976 106.0796,31.7566 108.1196,30.6896 C110.1596,29.6226 111.8256,28.1336 113.0766,26.2566 C113.1616,26.1156 113.2396,25.9676 113.3116,25.8096" id="Fill-8" fill="#000000"></path>
                    <path d="M114.4776,30.9922 C114.4236,30.8612 114.3976,30.7222 114.3976,30.5562 C114.3726,29.9832 114.4936,29.3662 114.7586,28.7222 C115.0346,28.0542 115.3446,27.4262 115.6826,26.8542 C115.9416,26.4142 116.2326,25.9772 116.5476,25.5572 C116.8606,25.1402 117.1766,24.7652 117.4886,24.4402 C117.7916,24.1232 118.0986,23.8672 118.4006,23.6792 C118.6446,23.5262 118.8786,23.4402 119.0976,23.4212 C119.0996,23.7052 119.1126,24.0002 119.1376,24.3082 C119.1636,24.6172 119.2026,24.8962 119.2526,25.1352 C119.1936,25.4832 119.0086,25.9812 118.7016,26.6192 C118.3756,27.2972 117.9726,27.9782 117.5026,28.6432 C117.0346,29.3072 116.5346,29.8932 116.0156,30.3872 C115.5326,30.8452 115.0916,31.0782 114.7066,31.0782 C114.5136,31.0782 114.4876,31.0152 114.4776,30.9922 M135.5626,31.0922 C135.3346,31.2222 135.0956,31.3042 134.8326,31.3402 C134.5526,31.3782 134.3086,31.3972 134.1076,31.3972 C133.6626,31.3972 133.2866,31.2492 132.9576,30.9442 C132.6986,30.7032 132.5206,30.4142 132.3896,30.1022 C132.9176,29.6642 133.4326,29.1962 133.9116,28.6772 C134.4066,28.1392 134.8456,27.6042 135.2496,27.0752 C135.2666,27.1072 135.2736,27.1442 135.2926,27.1762 L135.7796,27.9862 C135.9296,28.2112 136.0716,28.4692 136.2006,28.7512 C136.3186,29.0122 136.3776,29.3012 136.3776,29.6072 C136.3776,30.0072 136.2986,30.3222 136.1426,30.5442 C135.9786,30.7792 135.7836,30.9642 135.5626,31.0922 M138.8276,22.7572 C138.3886,22.7572 137.9406,22.8742 137.4936,23.1052 C137.0616,23.3282 136.6616,23.6022 136.3016,23.9202 C135.9376,24.2432 135.6316,24.6062 135.3936,24.9972 C135.1656,25.3732 135.0536,25.7312 135.0346,26.0692 C135.0166,26.0882 134.9916,26.0912 134.9766,26.1132 C134.6146,26.6822 134.1386,27.2902 133.5626,27.9182 C133.0416,28.4862 132.4846,29.0062 131.9096,29.4772 L131.9076,29.4772 L131.7826,29.4772 L131.7066,29.5782 C131.6436,29.6632 131.5356,29.7582 131.3846,29.8622 C131.2166,29.9782 131.0686,30.0762 130.9396,30.1532 L130.7956,30.2392 L130.8076,30.3162 C130.4866,30.5372 130.1706,30.7362 129.8646,30.9102 C129.2906,31.2332 128.7936,31.3972 128.3866,31.3972 C128.1616,31.3972 127.9986,31.3572 127.9146,31.2812 C127.8706,31.2422 127.7966,31.1292 127.7966,30.8072 C127.7966,30.4702 127.9246,29.9912 128.1776,29.3842 C128.4416,28.7532 128.7666,28.0802 129.1466,27.3882 C129.5256,26.6942 129.9336,26.0062 130.3586,25.3422 C130.7826,24.6792 131.1406,24.1342 131.4396,23.7002 C131.6016,23.4402 131.6766,23.2452 131.6766,23.0872 C131.6766,22.9252 131.6126,22.7592 131.4846,22.5942 C131.3406,22.4102 131.1736,22.3172 130.9876,22.3172 C130.8396,22.3172 130.5926,22.3702 129.9866,22.7802 C129.5676,23.0652 129.0796,23.4252 128.5346,23.8502 C127.9846,24.2792 127.4096,24.7482 126.8056,25.2562 C126.5516,25.4702 126.3066,25.6802 126.0706,25.8852 C126.2656,25.5082 126.4626,25.1592 126.6606,24.8382 C127.2306,23.9132 127.2776,23.7282 127.2776,23.6072 C127.2776,23.3812 127.1856,23.1742 127.0036,22.9902 C126.6236,22.6142 126.0676,22.6122 125.7976,23.0692 C125.4806,23.8092 125.0906,24.6602 124.6416,25.5992 C124.6216,25.6432 124.6006,25.6832 124.5806,25.7272 C124.4746,25.8222 124.3816,25.9222 124.2696,26.0132 C123.7506,26.4332 123.1876,26.6382 122.5466,26.6382 C121.9446,26.6382 121.5376,26.4432 121.3026,26.0412 C121.0466,25.6012 120.9166,25.0252 120.9166,24.3272 C120.9166,23.8142 120.9626,23.3332 121.0526,22.8982 C121.1386,22.4762 121.2686,22.1272 121.4516,21.8382 C121.5826,21.5742 121.4696,21.3692 121.2986,21.2842 C121.1396,21.2042 120.9646,21.2162 120.8356,21.3042 C120.7476,21.3482 120.6496,21.3802 120.5386,21.4022 L120.1386,21.4822 C119.7876,21.5532 119.5296,21.7802 119.3936,22.1382 C119.3106,22.3552 119.2426,22.5562 119.1906,22.7382 C118.3946,22.8382 117.6386,23.0982 116.9396,23.5132 C116.2016,23.9502 115.5356,24.4912 114.9706,25.1102 C114.6946,25.3862 114.4046,25.7362 114.0836,26.1812 C113.7716,26.6172 113.4766,27.0822 113.2076,27.5662 C112.9356,28.0562 112.7076,28.5682 112.5316,29.0872 C112.3486,29.6172 112.2566,30.1422 112.2566,30.6472 C112.2566,31.6342 112.8576,32.1782 113.9476,32.1782 C114.3056,32.1782 114.7316,32.0652 115.2636,31.8292 C115.8396,31.5272 116.3896,31.1382 116.8966,30.6722 C117.3986,30.2112 117.8606,29.6932 118.2696,29.1352 C118.6726,28.5832 119.0296,28.0212 119.3286,27.4662 C119.5356,27.0792 119.7166,26.7202 119.8726,26.3922 C120.1226,26.7032 120.4226,26.9502 120.7726,27.1292 C121.2466,27.3732 121.7356,27.4972 122.2276,27.4972 C122.8296,27.4972 123.3886,27.3632 123.9076,27.1162 C123.7156,27.5082 123.5286,27.8922 123.3506,28.2522 C122.9526,28.7602 122.5846,29.2192 122.2526,29.6312 C121.8786,30.0942 121.6976,30.4662 121.6976,30.7672 C121.6976,30.8432 121.7146,30.9832 121.8486,31.4042 C121.8976,31.5552 122.0446,32.0172 122.4266,32.0172 C122.6156,32.0172 122.7536,31.8482 122.8756,31.6642 C123.3276,30.9742 123.7146,30.3362 124.0276,29.7672 C124.3256,29.2212 124.6916,28.6082 125.1006,27.9662 C125.3356,27.6792 125.6456,27.3492 126.0216,26.9872 C126.4016,26.6192 126.8016,26.2522 127.2106,25.8962 C127.6216,25.5382 128.0266,25.2002 128.4236,24.8832 C128.7416,24.6282 129.0276,24.4152 129.2966,24.2372 C129.0676,24.7662 128.7626,25.3602 128.3916,26.0022 C128.0036,26.6702 127.6296,27.3242 127.2696,27.9652 C126.9086,28.6062 126.5886,29.2242 126.3206,29.8022 C126.0366,30.4152 125.8976,30.9142 125.8976,31.3282 C125.8976,31.9362 126.2056,32.1732 126.4636,32.2632 C126.7566,32.3662 127.0806,32.4182 127.4266,32.4182 C128.1526,32.4182 128.9086,32.2342 129.6736,31.8742 C130.1356,31.6552 130.5936,31.3862 131.0486,31.0932 C131.4566,31.8622 132.3566,32.2582 133.7476,32.2582 C134.0326,32.2582 134.4016,32.2102 134.8776,32.1122 C135.3586,32.0132 135.8356,31.8212 136.2976,31.5422 C136.7636,31.2592 137.1706,30.8802 137.5096,30.4152 C137.8606,29.9332 138.0386,29.3112 138.0386,28.5672 C138.0386,28.1782 137.9326,27.8002 137.7236,27.4412 C137.5336,27.1172 137.3316,26.7922 137.1136,26.4652 C136.8766,26.1232 136.6916,25.8472 136.5596,25.6352 C136.4506,25.4612 136.3976,25.2952 136.3976,25.1272 C136.3976,24.7902 136.5356,24.5542 136.8316,24.3842 C137.1646,24.1942 137.4996,24.0972 137.8276,24.0972 C138.3666,24.0972 138.5266,24.3112 138.6036,24.4802 C138.6926,24.6562 138.8246,24.6862 138.8956,24.6882 C139.0396,24.7072 139.1466,24.6152 139.2426,24.4562 L139.2586,24.4212 C139.3116,24.2912 139.3756,24.1412 139.4546,23.9722 C139.5306,23.8082 139.6066,23.6622 139.6826,23.5352 L139.7176,23.4762 L139.7176,23.4072 C139.7176,23.2122 139.6306,22.7572 138.8276,22.7572" id="Fill-10" fill="#000000"></path>
                    <path d="M147.3916,30.124 C147.4126,30.044 147.4116,29.92 147.2956,29.784 C147.1856,29.656 147.0696,29.626 146.9916,29.623 C146.9056,29.61 146.8016,29.64 146.7376,29.714 C146.1386,30.078 145.5646,30.376 145.0316,30.597 C144.5176,30.81 144.0586,30.918 143.6666,30.918 C142.9266,30.918 142.5966,30.551 142.5966,29.728 C142.5966,29.072 142.7916,28.284 143.1766,27.386 C143.5596,26.493 144.1116,25.397 144.8196,24.128 C145.1866,24.105 145.6066,24.081 146.0796,24.057 L147.6396,23.977 C148.1436,23.951 148.6096,23.931 149.0346,23.917 C149.4566,23.904 149.7756,23.897 149.9866,23.897 L150.0966,23.872 C150.2366,23.803 150.3166,23.678 150.3166,23.527 C150.3166,23.387 150.2396,23.264 150.0876,23.161 L150.0246,23.118 L145.4176,23.118 C145.8806,22.317 146.3646,21.505 146.8596,20.698 C147.4246,19.779 148.0196,18.882 148.6386,18.02 C148.7476,17.844 148.9186,17.692 149.1466,17.567 C149.3936,17.431 149.6166,17.338 149.8076,17.29 L149.8586,17.271 C150.1246,17.138 150.1586,16.93 150.0986,16.772 C150.0036,16.542 149.8216,16.518 149.7466,16.518 L149.6676,16.53 C149.2576,16.667 148.7876,16.844 148.2726,17.056 C147.7476,17.271 147.3376,17.446 147.0426,17.58 L146.9716,17.612 L146.9316,17.679 C146.6946,18.077 146.4216,18.507 146.1186,18.97 C145.8086,19.44 145.5066,19.923 145.2116,20.419 L143.6036,23.121 L141.6196,23.159 L141.5536,23.21 C141.2876,23.416 141.0916,23.629 140.9696,23.843 L140.9366,23.901 L140.9366,23.967 C140.9366,24.157 141.0546,24.377 141.3866,24.377 C141.4686,24.377 141.7486,24.357 142.2286,24.316 L142.9166,24.258 C142.1096,25.595 141.4786,26.752 141.0396,27.703 C140.5396,28.787 140.2966,29.594 140.2966,30.168 C140.2966,30.858 140.4906,31.361 140.8706,31.664 C141.2356,31.952 141.6646,32.098 142.1466,32.098 C142.9696,32.098 143.7906,31.959 144.5876,31.684 C145.3766,31.413 146.2436,30.973 147.1196,30.4 C147.2696,30.34 147.3616,30.247 147.3916,30.124" id="Fill-12" fill="#000000"></path>
                    <path d="M155.8985,24.9067 C155.9495,24.9817 156.0535,25.1377 156.2265,25.1377 C156.4135,25.1377 156.5615,25.0297 156.6195,24.8597 C156.6505,24.7797 156.7315,24.6177 156.9365,24.3037 C157.1025,24.0487 157.2635,23.8277 157.4165,23.6497 L157.4765,23.5797 L157.4765,23.4877 C157.4765,23.2677 157.3535,23.0717 157.1095,22.9017 C156.6315,22.5727 155.9545,22.6147 155.1445,22.9797 C154.7195,23.1717 154.2845,23.4127 153.8485,23.6987 C153.4165,23.9827 152.9985,24.2907 152.6075,24.6147 C152.5385,24.6727 152.4695,24.7297 152.4035,24.7857 C152.4095,24.7757 152.4155,24.7657 152.4215,24.7557 C152.5445,24.5507 152.6535,24.3517 152.7505,24.1597 C152.8655,23.9297 152.9175,23.7717 152.9175,23.6477 C152.9175,23.3227 152.7655,23.0557 152.4785,22.8747 C152.1605,22.6767 152.0425,22.6377 151.9465,22.6377 C151.7545,22.6377 151.6235,22.8097 151.4385,23.1457 C151.3355,23.3777 151.1375,23.7387 150.8515,24.2197 C150.5575,24.7147 150.2165,25.2957 149.8315,25.9617 L148.5895,28.1027 C148.1505,28.8637 147.7155,29.6167 147.2915,30.3617 C147.0765,30.7297 146.9765,30.9987 146.9765,31.2077 C146.9765,31.3687 147.0785,31.5317 147.3175,31.7517 C147.5625,31.9777 147.6965,32.0577 147.8275,32.0577 C148.1705,32.0577 148.2755,31.8537 148.2775,31.8227 C148.6595,31.2217 149.0115,30.6317 149.3245,30.0697 C149.6445,29.4977 149.9785,28.9367 150.3175,28.4017 C150.6585,27.8647 151.0235,27.3397 151.4065,26.8387 C151.7785,26.3507 152.2155,25.8927 152.7155,25.4717 C153.0205,25.1927 153.3815,24.9347 153.7905,24.7047 C154.1755,24.4877 154.5255,24.3777 154.8275,24.3777 C155.1415,24.3777 155.3095,24.4277 155.3955,24.4707 C155.5285,24.5377 155.6345,24.6097 155.7095,24.6827 C155.7895,24.7637 155.8525,24.8377 155.8985,24.9067" id="Fill-14" fill="#000000"></path>
                    <path d="M179.3789,24.1284 C179.7459,24.1054 180.1659,24.0814 180.6389,24.0574 L182.1989,23.9774 C182.7029,23.9504 183.1689,23.9314 183.5939,23.9174 C184.0169,23.9044 184.3349,23.8974 184.5459,23.8974 L184.6559,23.8724 C184.7959,23.8034 184.8759,23.6774 184.8759,23.5274 C184.8759,23.3874 184.7989,23.2634 184.6479,23.1604 L184.5839,23.1174 L179.9779,23.1174 C180.4409,22.3164 180.9239,21.5044 181.4189,20.6984 C181.9839,19.7784 182.5789,18.8824 183.1979,18.0204 C183.3079,17.8444 183.4789,17.6914 183.7059,17.5664 C183.9529,17.4314 184.1759,17.3374 184.3669,17.2904 L184.4179,17.2714 C184.6849,17.1384 184.7179,16.9294 184.6579,16.7724 C184.5639,16.5424 184.3809,16.5174 184.3069,16.5174 L184.2279,16.5304 C183.8169,16.6674 183.3479,16.8444 182.8319,17.0564 C182.3079,17.2714 181.8979,17.4454 181.6029,17.5804 L181.5309,17.6124 L181.4909,17.6794 C181.2539,18.0764 180.9819,18.5074 180.6779,18.9694 C180.3679,19.4404 180.0659,19.9234 179.7719,20.4194 L178.1629,23.1204 L176.1789,23.1584 L176.1129,23.2104 C175.8479,23.4164 175.6509,23.6294 175.5289,23.8434 L175.4959,23.9004 L175.4959,23.9674 C175.4959,24.1564 175.6139,24.3774 175.9459,24.3774 C176.0279,24.3774 176.3089,24.3574 176.7879,24.3164 L177.4769,24.2574 C177.1269,24.8364 176.8169,25.3744 176.5349,25.8834 C176.5139,25.9024 176.4959,25.9064 176.4739,25.9294 C175.0549,27.6634 173.7059,28.9724 172.4649,29.8214 C171.2469,30.6554 170.2789,31.0784 169.5869,31.0784 C169.1939,31.0784 168.8769,30.9614 168.6149,30.7224 C168.3599,30.4904 168.2359,30.1384 168.2359,29.6474 C168.2359,28.9284 168.3409,28.2184 168.5459,27.5394 C168.7509,26.8604 169.0299,26.2494 169.3759,25.7244 C169.7169,25.2064 170.1119,24.7844 170.5529,24.4714 C170.9739,24.1704 171.4159,24.0174 171.8669,24.0174 C172.2189,24.0174 172.4629,24.1064 172.6139,24.2874 C172.7769,24.4824 172.8569,24.6794 172.8569,24.8874 C172.8569,25.0964 172.8209,25.2954 172.7519,25.4794 L172.6609,25.7224 L173.1549,25.8874 L173.2609,25.8044 C173.6469,25.5014 173.9159,25.2724 174.0959,25.0914 C174.3219,24.8324 174.4369,24.4674 174.4369,24.0074 C174.4369,23.3644 174.1369,22.5974 172.7069,22.5974 C172.4579,22.5974 172.1649,22.6694 171.8099,22.8174 C170.7159,23.2824 169.6849,24.0224 168.7449,25.0154 C167.8789,25.9324 167.1929,26.9884 166.6869,28.1484 C166.4919,28.3814 166.3009,28.6204 166.1019,28.8394 C165.4579,29.5494 164.8269,30.1614 164.2289,30.6554 C163.6299,31.1494 163.0709,31.5374 162.5679,31.8074 C162.0889,32.0664 161.6789,32.1974 161.3479,32.1974 C160.9289,32.1974 160.7579,32.0144 160.7579,31.5674 C160.7579,30.9324 160.8589,30.3434 161.0609,29.8174 C161.2689,29.2724 161.5249,28.7484 161.8209,28.2564 C162.1229,27.7584 162.4539,27.2744 162.8059,26.8204 C163.1629,26.3574 163.5099,25.8744 163.8459,25.3704 C163.9729,25.1464 164.0369,24.9024 164.0369,24.6474 C164.0369,24.2844 163.9589,23.9654 163.8029,23.7004 C163.6859,23.5014 163.4979,23.2374 163.2279,23.2374 C163.0099,23.2374 162.8409,23.4314 162.6909,23.6434 C162.5839,23.8294 162.4249,24.1014 162.2129,24.4594 C161.9979,24.8214 161.7709,25.2164 161.5289,25.6454 C161.2889,26.0734 161.0419,26.5214 160.7879,26.9874 C160.5349,27.4534 160.2889,27.8994 160.0579,28.3114 C159.4349,29.2734 158.8909,29.9624 158.4419,30.3604 C157.8959,30.8454 157.6219,30.9184 157.5079,30.9184 C157.4319,30.9184 157.3169,30.9184 157.3169,30.5674 C157.3169,30.4234 157.3589,30.1464 157.5599,29.6394 C157.7319,29.2054 157.9569,28.7074 158.2319,28.1594 C158.5079,27.6054 158.8349,27.0044 159.2029,26.3734 C159.5699,25.7434 159.9719,25.1014 160.3959,24.4664 C160.6439,24.0944 160.6779,23.9494 160.6779,23.8474 C160.6779,23.7194 160.6159,23.5644 160.3159,23.2224 C160.0669,22.9404 159.8079,22.7974 159.5479,22.7974 C159.2689,22.7974 159.0889,23.0854 158.9709,23.3224 C158.2859,24.5074 157.7129,25.5254 157.2679,26.3484 C156.8149,27.1864 156.4729,27.8584 156.2209,28.4014 C155.9629,28.9574 155.7839,29.4064 155.6879,29.7374 C155.5879,30.0794 155.5369,30.3714 155.5369,30.6074 C155.5369,31.0514 155.6579,31.3894 155.8969,31.6104 C156.1299,31.8274 156.4299,31.9374 156.7869,31.9374 C157.1969,31.9374 157.5769,31.8554 157.9149,31.6934 C158.2409,31.5384 158.5429,31.3364 158.8149,31.0934 C158.9689,30.9564 159.1139,30.8124 159.2489,30.6664 C159.2009,30.9214 159.1779,31.1574 159.1779,31.3684 C159.1779,31.9444 159.3319,32.3814 159.6359,32.6694 C159.9359,32.9534 160.3499,33.0974 160.8669,33.0974 C161.5199,33.0974 162.2199,32.8924 162.9489,32.4864 C163.6559,32.0904 164.3579,31.5894 165.0319,30.9964 C165.4439,30.6334 165.8459,30.2374 166.2409,29.8254 C166.2359,29.8984 166.2169,29.9754 166.2169,30.0474 C166.2169,31.0014 166.6419,32.1374 168.6669,32.1374 C168.9709,32.1374 169.3039,32.1024 169.6549,32.0334 C170.0039,31.9624 170.3889,31.8434 170.8039,31.6774 C171.3259,31.4584 171.8779,31.1544 172.4449,30.7754 C173.0079,30.4014 173.5679,29.9704 174.1119,29.4964 C174.5249,29.1334 174.9259,28.7404 175.3229,28.3464 C175.0139,29.1104 174.8569,29.7144 174.8569,30.1684 C174.8569,30.8584 175.0499,31.3614 175.4309,31.6644 C175.7949,31.9524 176.2249,32.0974 176.7059,32.0974 C177.5289,32.0974 178.3509,31.9594 179.1479,31.6834 C179.9369,31.4134 180.8029,30.9724 181.6789,30.4004 C181.8289,30.3394 181.9209,30.2474 181.9509,30.1244 C181.9719,30.0444 181.9709,29.9204 181.8559,29.7844 C181.7449,29.6564 181.6289,29.6264 181.5509,29.6234 C181.4649,29.6104 181.3609,29.6394 181.2969,29.7134 C180.6979,30.0784 180.1239,30.3764 179.5909,30.5964 C179.0769,30.8094 178.6179,30.9184 178.2269,30.9184 C177.4859,30.9184 177.1559,30.5504 177.1559,29.7274 C177.1559,29.0724 177.3519,28.2844 177.7359,27.3854 C178.1189,26.4934 178.6709,25.3974 179.3789,24.1284" id="Fill-16" fill="#000000"></path>
                    <path d="M189.0264,19.1772 C189.4474,19.1772 189.8274,18.9872 190.1544,18.6122 C190.4744,18.2462 190.6364,17.8682 190.6364,17.4872 C190.6364,17.0052 190.3484,16.7172 189.8664,16.7172 C189.4144,16.7172 189.0324,16.9102 188.7304,17.2922 C188.4424,17.6562 188.2964,18.0452 188.2964,18.4472 C188.2964,18.9042 188.5694,19.1772 189.0264,19.1772" id="Fill-18" fill="#000000"></path>
                    <g id="Group-22" transform="translate(182.000000, 21.000000)">
                        <mask id="mask-4" fill="white">
                            <use xlink:href="#path-3"></use>
                        </mask>
                        <g id="Clip-21"></g>
                        <path d="M9.7969,9.9922 C9.7429,9.8612 9.7169,9.7222 9.7169,9.5562 C9.6919,8.9832 9.8129,8.3662 10.0779,7.7222 C10.3539,7.0542 10.6639,6.4262 11.0019,5.8542 C11.2609,5.4142 11.5519,4.9772 11.8669,4.5572 C12.1799,4.1402 12.4959,3.7652 12.8079,3.4402 C13.1109,3.1232 13.4179,2.8672 13.7199,2.6792 C13.9639,2.5262 14.1979,2.4402 14.4169,2.4212 C14.4189,2.7052 14.4319,3.0002 14.4569,3.3082 C14.4829,3.6172 14.5219,3.8962 14.5719,4.1352 C14.5129,4.4832 14.3279,4.9812 14.0209,5.6192 C13.6949,6.2972 13.2919,6.9782 12.8219,7.6432 C12.3539,8.3072 11.8539,8.8932 11.3349,9.3872 C10.8519,9.8452 10.4109,10.0782 10.0259,10.0782 C9.8329,10.0782 9.8069,10.0152 9.7969,9.9922 M31.0559,5.1892 C31.0269,5.0802 30.9479,4.9962 30.8339,4.9532 C30.6149,4.8722 30.4169,4.9302 30.2959,5.1132 C29.9339,5.6822 29.4579,6.2902 28.8819,6.9182 C28.3069,7.5462 27.6909,8.1232 27.0509,8.6322 C26.4079,9.1432 25.7799,9.5732 25.1839,9.9102 C24.6099,10.2332 24.1129,10.3972 23.7059,10.3972 C23.4809,10.3972 23.3179,10.3572 23.2339,10.2812 C23.1899,10.2422 23.1159,10.1292 23.1159,9.8072 C23.1159,9.4702 23.2439,8.9912 23.4969,8.3842 C23.7609,7.7532 24.0859,7.0802 24.4659,6.3882 C24.8449,5.6942 25.2529,5.0062 25.6779,4.3422 C26.1019,3.6792 26.4599,3.1342 26.7589,2.7002 C26.9209,2.4402 26.9959,2.2452 26.9959,2.0872 C26.9959,1.9252 26.9319,1.7592 26.8039,1.5942 C26.6599,1.4102 26.4929,1.3172 26.3069,1.3172 C26.1589,1.3172 25.9119,1.3702 25.3059,1.7802 C24.8869,2.0652 24.3989,2.4252 23.8539,2.8502 C23.3039,3.2792 22.7289,3.7482 22.1249,4.2562 C21.8709,4.4702 21.6259,4.6802 21.3899,4.8852 C21.5849,4.5082 21.7819,4.1592 21.9799,3.8382 C22.5499,2.9132 22.5969,2.7282 22.5969,2.6072 C22.5969,2.3812 22.5049,2.1742 22.3229,1.9902 C21.9439,1.6142 21.3859,1.6122 21.1169,2.0692 C20.7999,2.8092 20.4099,3.6602 19.9609,4.5992 C19.9409,4.6432 19.9199,4.6832 19.8999,4.7272 C19.7939,4.8222 19.7009,4.9222 19.5889,5.0132 C19.0699,5.4332 18.5069,5.6382 17.8659,5.6382 C17.2639,5.6382 16.8569,5.4432 16.6219,5.0412 C16.3659,4.6012 16.2359,4.0252 16.2359,3.3272 C16.2359,2.8142 16.2819,2.3332 16.3719,1.8982 C16.4579,1.4762 16.5879,1.1272 16.7709,0.8382 C16.9019,0.5742 16.7889,0.3692 16.6179,0.2842 C16.4589,0.2042 16.2839,0.2162 16.1549,0.3042 C16.0669,0.3482 15.9689,0.3802 15.8579,0.4022 L15.4579,0.4822 C15.1069,0.5532 14.8489,0.7802 14.7129,1.1382 C14.6299,1.3552 14.5619,1.5562 14.5099,1.7382 C13.7139,1.8382 12.9579,2.0982 12.2589,2.5132 C11.5209,2.9502 10.8549,3.4912 10.2899,4.1102 C10.0139,4.3862 9.7239,4.7362 9.4029,5.1812 C9.0999,5.6052 8.8139,6.0592 8.5509,6.5292 C8.0399,7.0602 7.4829,7.5732 6.8889,8.0542 C6.2759,8.5492 5.6489,8.9782 5.0249,9.3302 C4.4239,9.6672 3.8729,9.8382 3.3869,9.8382 C3.1509,9.8382 2.9759,9.7852 2.8479,9.6772 C2.7349,9.5812 2.6769,9.4102 2.6769,9.1682 C2.6769,8.9012 2.7599,8.5252 2.9229,8.0492 C3.0929,7.5522 3.3239,7.0032 3.6109,6.4172 C3.9029,5.8202 4.2309,5.1982 4.5839,4.5702 C4.9449,3.9282 5.2999,3.3412 5.6049,2.8632 C5.6839,2.7842 5.7479,2.6762 5.7999,2.5352 C5.8519,2.3992 5.8759,2.2952 5.8759,2.2072 C5.8759,2.0362 5.7589,1.8372 5.4269,1.8372 C5.3219,1.8372 5.1499,1.8662 4.6659,2.0782 C4.2869,2.2452 4.0139,2.4592 3.8639,2.7002 C3.6489,2.9962 3.3639,3.4332 2.9929,4.0372 C2.6319,4.6262 2.2709,5.2422 1.9079,5.8852 C1.5399,6.5402 1.2209,7.1732 0.9579,7.7652 C0.6739,8.4022 0.5359,8.9002 0.5359,9.2882 C0.5359,9.6312 0.6109,9.9142 0.7599,10.1302 C0.9009,10.3322 1.0739,10.4982 1.2749,10.6202 C1.4779,10.7462 1.7069,10.8252 1.9549,10.8552 C2.1799,10.8842 2.3779,10.8972 2.5459,10.8972 C3.0239,10.8972 3.5619,10.7992 4.1459,10.6052 C4.7239,10.4122 5.2949,10.1342 5.8429,9.7772 C6.4429,9.3852 7.1039,8.8702 7.8059,8.2582 C7.6609,8.7292 7.5759,9.1972 7.5759,9.6472 C7.5759,10.6342 8.1769,11.1782 9.2669,11.1782 C9.6249,11.1782 10.0509,11.0652 10.5829,10.8292 C11.1589,10.5272 11.7089,10.1382 12.2159,9.6722 C12.7179,9.2112 13.1799,8.6932 13.5889,8.1352 C13.9919,7.5832 14.3489,7.0212 14.6479,6.4662 C14.8549,6.0792 15.0359,5.7202 15.1919,5.3922 C15.4419,5.7032 15.7419,5.9502 16.0919,6.1292 C16.5659,6.3732 17.0549,6.4972 17.5469,6.4972 C18.1489,6.4972 18.7079,6.3632 19.2269,6.1162 C19.0349,6.5082 18.8479,6.8922 18.6699,7.2522 C18.2719,7.7602 17.9039,8.2192 17.5719,8.6312 C17.1979,9.0942 17.0169,9.4662 17.0169,9.7672 C17.0169,9.8432 17.0339,9.9832 17.1679,10.4042 C17.2169,10.5552 17.3639,11.0172 17.7459,11.0172 C17.9349,11.0172 18.0729,10.8482 18.1949,10.6642 C18.6469,9.9742 19.0339,9.3362 19.3469,8.7672 C19.6449,8.2212 20.0109,7.6082 20.4199,6.9662 C20.6549,6.6792 20.9649,6.3492 21.3409,5.9872 C21.7209,5.6192 22.1209,5.2522 22.5299,4.8962 C22.9409,4.5382 23.3459,4.2002 23.7429,3.8832 C24.0609,3.6282 24.3469,3.4152 24.6159,3.2372 C24.3869,3.7662 24.0819,4.3602 23.7109,5.0022 C23.3229,5.6702 22.9489,6.3242 22.5889,6.9652 C22.2279,7.6062 21.9079,8.2242 21.6399,8.8022 C21.3559,9.4152 21.2169,9.9142 21.2169,10.3282 C21.2169,10.9362 21.5249,11.1732 21.7829,11.2632 C22.0759,11.3662 22.3999,11.4182 22.7459,11.4182 C23.4719,11.4182 24.2279,11.2342 24.9929,10.8742 C25.7379,10.5222 26.4799,10.0692 27.1969,9.5272 C27.9129,8.9872 28.5969,8.3642 29.2309,7.6772 C29.8609,6.9922 30.4239,6.3072 30.9039,5.6402 C30.9939,5.5322 31.1039,5.3692 31.0559,5.1892" id="Fill-20" fill="#000000" mask="url(#mask-4)"></path>
                    </g>
                </g>
            </g>
        </g>
    </g>
</svg>