<?xml version="1.0" encoding="utf-8"?>
<!-- Generator: Adobe Illustrator 22.1.0, SVG Export Plug-In . SVG Version: 6.00 Build 0)  -->
<svg version="1.1" id="Layer_1" xmlns="http://www.w3.org/2000/svg" xmlns:xlink="http://www.w3.org/1999/xlink" x="0px" y="0px"
	 viewBox="0 0 24 16" style="enable-background:new 0 0 24 16;" xml:space="preserve">
<g>
	<path d="M24,1c0-0.5-0.5-1-1-1h-6c-0.2,0-0.3,0-0.5,0.1C16.3,0,16.2,0,16,0H8C7.8,0,7.7,0,7.5,0.1C7.3,0,7.2,0,7,0H1
		C0.5,0,0,0.5,0,1v4c0,0.2,0,0.3,0.1,0.5C0,5.6,0,5.8,0,6v4c0,0.2,0,0.3,0.1,0.5C0,10.6,0,10.8,0,11v4c0,0.5,0.5,1,1,1h6
		c0.2,0,0.3,0,0.5-0.1C7.7,16,7.8,16,8,16h8c0.2,0,0.3,0,0.5-0.1C16.7,16,16.8,16,17,16h6c0.5,0,1-0.5,1-1v-4c0-0.2,0-0.4-0.1-0.5
		C24,10.3,24,10.2,24,10V6c0-0.2,0-0.4-0.1-0.5C24,5.3,24,5.2,24,5V1z M18,6v4h-3V6H18z M8,1h8v4H8V1z M14,6v4h-4V6H14z M1,1h6v4H1
		V1z M1,6h4v4H1V6z M7,15H1v-4h6V15z M6,10V6h3v4H6z M16,15H8v-4h8V15z M23,15h-6v-4h6V15z M23,10h-4V6h4V10z M23,5h-6V1h6V5z"/>
</g>
</svg>
